<?xml version="1.0" encoding="UTF-8"?>
<svg width="418px" height="126px" viewBox="0 0 418 126" version="1.1" xmlns="http://www.w3.org/2000/svg" xmlns:xlink="http://www.w3.org/1999/xlink">
    <!-- Generator: Sketch 49 (51002) - http://www.bohemiancoding.com/sketch -->
    <title>garage48_logo</title>
    <desc>Created with Sketch.</desc>
    <defs></defs>
    <g id="garage48_logo" stroke="none" stroke-width="1" fill="none" fill-rule="evenodd">
        <g id="logo">
            <path d="M58.7636291,62.1113281 C58.7636291,66.5423399 58.0982867,70.5728985 56.7675819,74.203125 C55.4368771,77.8333515 53.5473047,80.9430209 51.0988079,83.5322266 C48.6503111,86.1214322 45.6695771,88.1233653 42.1565165,89.5380859 C38.6434559,90.9528066 34.7046288,91.6601562 30.3399172,91.6601562 C25.9752055,91.6601562 21.9432305,90.9528066 18.2438712,89.5380859 C14.544512,88.1233653 11.3375616,86.0947398 8.62292383,83.4521484 C5.90828609,80.8095571 3.79249723,77.5797717 2.27549379,73.7626953 C0.758490344,69.9456189 0,65.6347896 0,60.8300781 C0,55.9719809 0.758490344,51.6344592 2.27549379,47.8173828 C3.79249723,44.0003064 5.89497924,40.770521 8.58300289,38.1279297 C11.2710265,35.4853383 14.4646701,33.470059 18.1640294,32.0820312 C21.8633886,30.6940035 25.8953636,30 30.2600753,30 C33.7199077,30 36.9667787,30.4537715 40.0007855,31.3613281 C43.0347924,32.2688847 45.7760031,33.6035068 48.2244999,35.3652344 C50.6729967,37.1269619 52.748865,39.2890497 54.4521671,41.8515625 C56.1554693,44.4140753 57.406313,47.3235514 58.2047358,50.5800781 L45.4300339,52.7421875 C44.5783828,49.0585753 42.8484926,46.1757917 40.2403112,44.09375 C37.6321298,42.0117083 34.2788041,40.9707031 30.1802334,40.9707031 C24.8041861,40.9707031 20.519381,42.6256345 17.3256895,45.9355469 C14.1319981,49.2454593 12.5351763,54.2102534 12.5351763,60.8300781 C12.5351763,64.1399905 12.9609954,67.0361204 13.8126465,69.5185547 C14.6642976,72.000989 15.8619139,74.0696532 17.4055314,75.7246094 C18.949149,77.3795656 20.7988009,78.6207641 22.9545426,79.4482422 C25.1102843,80.2757203 27.5188239,80.6894531 30.1802334,80.6894531 C33.8529786,80.6894531 37.059929,79.7685639 39.8011808,77.9267578 C42.5424327,76.0849517 44.3654709,73.1087445 45.2703501,68.9980469 L30.2600753,68.9980469 L30.2600753,58.1074219 L58.7636291,58.1074219 L58.7636291,62.1113281 Z M82.7199175,48.578125 C85.647468,48.578125 88.1624623,49.0719352 90.2649759,50.0595703 C92.3674894,51.0472055 93.9510043,52.2617115 95.0155682,53.703125 L95.0155682,49.3789062 L105.953907,49.3789062 L105.953907,90.7792969 L95.0155682,90.7792969 L95.0155682,86.5351562 C93.9510043,87.923184 92.3674894,89.1243439 90.2649759,90.1386719 C88.1624623,91.1529999 85.647468,91.6601562 82.7199175,91.6601562 C79.792367,91.6601562 77.1176905,91.1529999 74.6958078,90.1386719 C72.2739252,89.1243439 70.18475,87.6696058 68.4282197,85.7744141 C66.6716894,83.8792223 65.301084,81.6103648 64.3163625,78.9677734 C63.331641,76.3251821 62.8392876,73.3756673 62.8392876,70.1191406 C62.8392876,66.8626139 63.331641,63.9130992 64.3163625,61.2705078 C65.301084,58.6279165 66.6716894,56.359059 68.4282197,54.4638672 C70.18475,52.5686754 72.2739252,51.1139374 74.6958078,50.0996094 C77.1176905,49.0852814 79.792367,48.578125 82.7199175,48.578125 Z M84.6361228,58.5878906 C81.7085723,58.5878906 79.3133396,59.5888572 77.450353,61.5908203 C75.5873663,63.5927834 74.6558869,66.4355285 74.6558869,70.1191406 C74.6558869,73.8027528 75.5873663,76.6321516 77.450353,78.6074219 C79.3133396,80.5826922 81.7085723,81.5703125 84.6361228,81.5703125 C87.5104451,81.5703125 89.8524504,80.6494233 91.6622089,78.8076172 C93.4719674,76.9658111 94.3768331,74.3632981 94.3768331,71 L94.3768331,69.1582031 C94.3768331,65.7949051 93.4719674,63.192392 91.6622089,61.3505859 C89.8524504,59.5087799 87.5104451,58.5878906 84.6361228,58.5878906 Z M133.426961,60.2695312 C130.073584,60.2695312 127.412215,61.1370356 125.442772,62.8720703 C123.473329,64.607105 122.488622,66.9160012 122.488622,69.7988281 L122.488622,90.7792969 L110.831706,90.7792969 L110.831706,49.3789062 L122.089413,49.3789062 L122.089413,54.1035156 C122.994292,52.7154879 124.31167,51.514328 126.041586,50.5 C127.771502,49.485672 130.233269,48.9785156 133.426961,48.9785156 L133.426961,60.2695312 Z M155.30736,48.578125 C158.23491,48.578125 160.749905,49.0719352 162.852418,50.0595703 C164.954932,51.0472055 166.538447,52.2617115 167.603011,53.703125 L167.603011,49.3789062 L178.541349,49.3789062 L178.541349,90.7792969 L167.603011,90.7792969 L167.603011,86.5351562 C166.538447,87.923184 164.954932,89.1243439 162.852418,90.1386719 C160.749905,91.1529999 158.23491,91.6601562 155.30736,91.6601562 C152.379809,91.6601562 149.705133,91.1529999 147.28325,90.1386719 C144.861368,89.1243439 142.772192,87.6696058 141.015662,85.7744141 C139.259132,83.8792223 137.888526,81.6103648 136.903805,78.9677734 C135.919083,76.3251821 135.42673,73.3756673 135.42673,70.1191406 C135.42673,66.8626139 135.919083,63.9130992 136.903805,61.2705078 C137.888526,58.6279165 139.259132,56.359059 141.015662,54.4638672 C142.772192,52.5686754 144.861368,51.1139374 147.28325,50.0996094 C149.705133,49.0852814 152.379809,48.578125 155.30736,48.578125 Z M157.223565,58.5878906 C154.296015,58.5878906 151.900782,59.5888572 150.037795,61.5908203 C148.174809,63.5927834 147.243329,66.4355285 147.243329,70.1191406 C147.243329,73.8027528 148.174809,76.6321516 150.037795,78.6074219 C151.900782,80.5826922 154.296015,81.5703125 157.223565,81.5703125 C160.097888,81.5703125 162.439893,80.6494233 164.249651,78.8076172 C166.05941,76.9658111 166.964275,74.3632981 166.964275,71 L166.964275,69.1582031 C166.964275,65.7949051 166.05941,63.192392 164.249651,61.3505859 C162.439893,59.5087799 160.097888,58.5878906 157.223565,58.5878906 Z M202.773361,48.578125 C205.700912,48.578125 208.215906,49.0719352 210.31842,50.0595703 C212.420933,51.0472055 214.004448,52.2617115 215.069012,53.703125 L215.069012,49.3789062 L226.007351,49.3789062 L226.007351,92.3007812 C226.007351,95.2903795 225.514997,97.9996623 224.530276,100.428711 C223.545554,102.85776 222.148335,104.926424 220.338577,106.634766 C218.528818,108.343107 216.346495,109.664383 213.791542,110.598633 C211.236589,111.532882 208.36231,112 205.168618,112 C201.921698,112 199.060726,111.61296 196.585615,110.838867 C194.110504,110.064775 191.994715,108.983731 190.238185,107.595703 C188.481655,106.207675 187.084436,104.526052 186.046486,102.550781 C185.008536,100.575511 184.303273,98.4134232 183.930676,96.0644531 L195.50775,95.6640625 C195.773891,97.6927185 196.718677,99.2675725 198.342137,100.388672 C199.965597,101.509771 202.107999,102.070312 204.769409,102.070312 C207.643731,102.070312 209.972429,101.33627 211.755574,99.8681641 C213.538718,98.4000578 214.430277,96.1712389 214.430277,93.1816406 L214.430277,87.2558594 C213.312485,88.4837301 211.768891,89.5247353 209.799448,90.3789062 C207.830004,91.2330772 205.487999,91.6601562 202.773361,91.6601562 C199.845811,91.6601562 197.171134,91.1529999 194.749252,90.1386719 C192.327369,89.1243439 190.238194,87.6696058 188.481664,85.7744141 C186.725133,83.8792223 185.354528,81.6103648 184.369806,78.9677734 C183.385085,76.3251821 182.892731,73.3756673 182.892731,70.1191406 C182.892731,66.8626139 183.385085,63.9130992 184.369806,61.2705078 C185.354528,58.6279165 186.725133,56.3724052 188.481664,54.5039062 C190.238194,52.6354073 192.327369,51.1806693 194.749252,50.1396484 C197.171134,49.0986276 199.845811,48.578125 202.773361,48.578125 Z M204.689567,58.5878906 C201.762016,58.5878906 199.366784,59.5888572 197.503797,61.5908203 C195.64081,63.5927834 194.709331,66.4355285 194.709331,70.1191406 C194.709331,73.8027528 195.64081,76.6454978 197.503797,78.6474609 C199.366784,80.6494241 201.762016,81.6503906 204.689567,81.6503906 C207.563889,81.6503906 209.905894,80.7295014 211.715653,78.8876953 C213.525411,77.0458892 214.430277,74.4433762 214.430277,71.0800781 L214.430277,69.1582031 C214.430277,65.7949051 213.525411,63.192392 211.715653,61.3505859 C209.905894,59.5087799 207.563889,58.5878906 204.689567,58.5878906 Z M243.65613,73.8027344 C243.762586,76.3652472 244.560997,78.407219 246.051387,79.9287109 C247.541776,81.4502029 249.617644,82.2109375 252.279054,82.2109375 C254.301725,82.2109375 255.965081,81.8105509 257.269172,81.0097656 C258.573262,80.2089804 259.438208,79.0878978 259.864033,77.6464844 L271.600791,78.2070312 C271.228193,80.1823015 270.48301,81.9840413 269.365218,83.6123047 C268.247426,85.240568 266.850207,86.6552674 265.173519,87.8564453 C263.496831,89.0576232 261.580644,89.9918586 259.424903,90.6591797 C257.269161,91.3265007 254.99369,91.6601562 252.598421,91.6601562 C249.457958,91.6601562 246.570372,91.1663461 243.935577,90.1787109 C241.300781,89.1910758 239.051924,87.7630302 237.188937,85.8945312 C235.32595,84.0260323 233.875504,81.7571748 232.837554,79.0878906 C231.799605,76.4186064 231.280637,73.429053 231.280637,70.1191406 C231.280637,66.7558426 231.799605,63.7529429 232.837554,61.1103516 C233.875504,58.4677602 235.32595,56.2122489 237.188937,54.34375 C239.051924,52.4752511 241.260861,51.0472055 243.815814,50.0595703 C246.370767,49.0719352 249.191819,48.578125 252.279054,48.578125 C255.259833,48.578125 257.961123,49.0452427 260.383005,49.9794922 C262.804888,50.9137417 264.880756,52.2617099 266.610673,54.0234375 C268.340589,55.7851651 269.671274,57.9472528 270.602767,60.5097656 C271.53426,63.0722784 272,65.9550621 272,69.1582031 L272,73.8027344 L243.65613,73.8027344 Z M252.199212,57.7070312 C249.697487,57.7070312 247.688153,58.4277272 246.171149,59.8691406 C244.654146,61.3105541 243.815815,63.3658721 243.65613,66.0351562 L260.263243,66.0351562 C260.156786,63.4726434 259.451523,61.4440179 258.147433,59.9492187 C256.843342,58.4544196 254.860621,57.7070312 252.199212,57.7070312 Z" id="Garage" fill="#2A2C30"></path>
            <rect id="Rectangle" fill="#FF0046" x="292" y="0" width="126" height="126"></rect>
            <path d="M353.900933,74.0807373 L353.900933,82.5741559 L347.063011,82.5741559 L347.063011,91.2115307 L336.986073,91.2115307 L336.986073,82.5741559 L310.929993,82.5741559 L347.063011,36.3642004 L347.063011,74.0807373 L353.900933,74.0807373 Z M336.986073,74.0807373 L336.986073,62.3483031 L327.91683,74.0807373 L336.986073,74.0807373 Z M376.167098,36.5801348 C378.662352,36.5801348 380.977625,36.9280256 383.112987,37.6238176 C385.248348,38.3196096 387.095768,39.315297 388.655302,40.6109097 C390.214836,41.9065224 391.438452,43.5020215 392.326186,45.3974549 C393.213921,47.2928883 393.657782,49.4162218 393.657782,51.7675189 C393.657782,54.1668017 393.189929,56.2541464 392.254208,58.0296157 C391.318488,59.8050849 390.058883,61.2686255 388.475357,62.4202812 C390.490754,63.7638796 392.086253,65.5153297 393.261902,67.6746843 C394.437551,69.8340388 395.025366,72.3532479 395.025366,75.2323872 C395.025366,77.8236127 394.545517,80.1628783 393.585804,82.2502543 C392.62609,84.3376303 391.306505,86.1010767 389.627007,87.5406464 C387.947509,88.9802161 385.96813,90.0838696 383.688812,90.8516401 C381.409493,91.6194106 378.926272,92.0032901 376.239076,92.0032901 C373.551879,92.0032901 371.068659,91.6194106 368.78934,90.8516401 C366.510021,90.0838696 364.530643,88.9802161 362.851145,87.5406464 C361.171647,86.1010767 359.852061,84.3376303 358.892348,82.2502543 C357.932635,80.1628783 357.452785,77.8236127 357.452785,75.2323872 C357.452785,72.3532479 358.028605,69.846035 359.18026,67.7106733 C360.331916,65.5753116 361.915419,63.8358577 363.930817,62.4922593 C362.34729,61.3406036 361.099682,59.8650668 360.187954,58.0656047 C359.276227,56.2661426 358.82037,54.1668017 358.82037,51.7675189 C358.82037,49.4162218 359.252234,47.2928883 360.115976,45.3974549 C360.979718,43.5020215 362.191337,41.9065224 363.750871,40.6109097 C365.310405,39.315297 367.145829,38.3196096 369.257198,37.6238176 C371.368567,36.9280256 373.671844,36.5801348 376.167098,36.5801348 Z M376.239076,46.4411377 C374.463607,46.4411377 372.964077,46.968972 371.740443,48.0246565 C370.516809,49.0803409 369.905001,50.5918664 369.905001,52.5592783 C369.905001,54.3827332 370.516809,55.8222813 371.740443,56.8779657 C372.964077,57.9336501 374.463607,58.4614844 376.239076,58.4614844 C378.062531,58.4614844 379.574056,57.9336501 380.773698,56.8779657 C381.973339,55.8222813 382.573151,54.3827332 382.573151,52.5592783 C382.573151,50.5918664 381.973339,49.0803409 380.773698,48.0246565 C379.574056,46.968972 378.062531,46.4411377 376.239076,46.4411377 Z M376.239076,67.3867718 C374.079721,67.3867718 372.256294,68.0225722 370.768738,69.294192 C369.281183,70.5658119 368.537417,72.3772432 368.537417,74.7285404 C368.537417,77.0798375 369.281183,78.9032651 370.768738,80.1988778 C372.256294,81.4944905 374.079721,82.1422871 376.239076,82.1422871 C378.446416,82.1422871 380.28184,81.4944905 381.745402,80.1988778 C383.208965,78.9032651 383.940735,77.0798375 383.940735,74.7285404 C383.940735,72.3772432 383.208965,70.5658119 381.745402,69.294192 C380.28184,68.0225722 378.446416,67.3867718 376.239076,67.3867718 Z" id="48" fill="#FFFFFF"></path>
        </g>
    </g>
</svg>